<svg width="109" height="40" viewBox="0 0 109 40" fill="none" xmlns="http://www.w3.org/2000/svg">
<path d="M12.7971 13.5385L0 17.0888L8.66595 24.9572L12.7971 21.9957V13.5385Z" fill="#231F20"/>
<path d="M8.99463 25.7321L12.7969 37.8774V22.8947L8.99463 25.7321Z" fill="#231F20"/>
<path d="M37.0759 18.9446C39.6673 17.07 41.2189 14.1558 41.2425 10.7985C41.2819 4.81835 36.3218 0 30.3417 0H16.1268C14.2877 0 12.7971 1.4906 12.7971 3.32972V13.5394L29.8061 8.8215C30.2531 8.69745 30.5346 9.28818 30.1585 9.55794L12.7971 21.9967V22.8946L30.2038 10.4243C30.578 10.1565 31.0466 10.6075 30.7906 10.9914L12.7991 37.8773C12.7991 39.0489 13.7502 40 14.9218 40H30.895C37.3339 40 42.6406 34.7642 42.5205 28.3253C42.4456 24.3162 40.4037 20.9609 37.0779 18.9446H37.0759Z" fill="#231F20"/>
<path d="M65.7283 17.3064C64.1136 15.7173 61.9595 14.8411 59.6576 14.8411C57.9169 14.8411 56.4125 15.5145 55.3197 16.3474V7.97684H50.2749V32.683H55.3217V31.3538C56.6016 32.3955 58.2438 33.0098 59.8643 33.0098C64.7654 33.0098 68.4633 29.1484 68.4633 24.0269C68.4633 21.4296 67.4926 19.0431 65.7283 17.3064ZM55.3217 24.0269C55.3217 21.7723 57.2238 19.8681 59.4725 19.8681C60.5161 19.8681 61.4987 20.2698 62.2391 20.9984C62.9991 21.7467 63.4166 22.7489 63.4166 23.824C63.4166 26.0786 61.5164 27.9827 59.2657 27.9827C58.2221 27.9827 57.2396 27.5811 56.4992 26.8525C55.7391 26.1042 55.3217 25.1 55.3217 24.0269Z" fill="#231F20"/>
<path d="M73.955 6.99219H68.9102V32.6789H73.955V6.99219Z" fill="#231F20"/>
<path d="M80.4271 15.1643H75.3823V32.6794H80.4271V15.1643Z" fill="#231F20"/>
<path d="M78.009 13.4274C79.5666 13.4274 80.7874 12.1948 80.7894 10.6235C80.7894 9.84566 80.4625 9.07772 79.8915 8.51456C79.3244 7.95534 78.5821 7.64816 77.8043 7.64816C76.2723 7.64816 75.0259 8.89066 75.0259 10.4206C75.0259 11.2161 75.3567 11.9979 75.9336 12.565C76.4988 13.1222 77.2372 13.4274 78.013 13.4274H78.009Z" fill="#231F20"/>
<path d="M88.869 25.5692L93.0651 15.1665H89.2904V10.7853H84.2436V15.1665H81.2368V20.1936H84.2436V26.5025C84.2436 28.889 84.7497 30.4978 85.8346 31.567C86.8192 32.5358 88.2586 33.0064 90.2375 33.0064C91.0921 33.0064 92.1003 32.8922 92.882 32.711L93.1695 26.916H89.9717C89.2786 26.916 88.6898 26.1993 88.867 25.5672L88.869 25.5692Z" fill="#231F20"/>
<path d="M108.49 15.1663H95.0534L94.4193 20.855H98.6824C99.4562 20.855 100.061 21.7293 99.724 22.3594L93.0469 32.6794H108.38V27.9142H102.217L108.488 18.8741V15.1643L108.49 15.1663Z" fill="#231F20"/>
</svg>
